<svg version="1.2" xmlns="http://www.w3.org/2000/svg" viewBox="0 0 629 628" width="996" height="994">
	<title>Aisk</title>
	<defs>
		<clipPath clipPathUnits="userSpaceOnUse" id="cp1">
			<path d="m-220-223h1066.67v1066.67h-1066.67z"/>
		</clipPath>
		<clipPath clipPathUnits="userSpaceOnUse" id="cp2">
			<path d="m-220-223h1066.67v1066.67h-1066.67z"/>
		</clipPath>
		<clipPath clipPathUnits="userSpaceOnUse" id="cp3">
			<path d="m-220-223h1066.67v1066.67h-1066.67z"/>
		</clipPath>
		<clipPath clipPathUnits="userSpaceOnUse" id="cp4">
			<path d="m-220-223h1066.67v1066.67h-1066.67z"/>
		</clipPath>
		<clipPath clipPathUnits="userSpaceOnUse" id="cp5">
			<path d="m-220-223h1066.67v1066.67h-1066.67z"/>
		</clipPath>
		<clipPath clipPathUnits="userSpaceOnUse" id="cp6">
			<path d="m-220-223h1066.67v1066.67h-1066.67z"/>
		</clipPath>
	</defs>
	<style>
		.s0 { fill: #7f54b3 } 
		.s1 { fill: #ffffff } 
	</style>
	<g id="layer-MC0">
		<g id="Clip-Path: path2" clip-path="url(#cp1)">
			<path id="path2" class="s0" d="m464.2 628.1h-300.2c-90.5 0-163.9-73.4-163.9-163.9v-300.2c0-90.5 73.4-163.9 163.9-163.9h300.2c90.6 0 164 73.4 164 163.9v300.2c0 90.5-73.4 163.9-164 163.9z"/>
		</g>
		<g id="Clip-Path: path4" clip-path="url(#cp2)">
			<path id="path4" class="s1" d="m160.8 348.7q-4.2-1.7-5.9-5.9-1.7-4.2 0-8.3l11.7-28.2v-0.1l34.1-82.2q0.2-0.4 0.4-0.9l0.2-0.5q0.3-0.3 0.4-0.4 0-0.1 0.3-0.5 0.2-0.3 0.3-0.4 0-0.1 0.3-0.3 0.4-0.4 0.4-0.5 0.1-0.1 0.4-0.3 0.3-0.3 0.4-0.3-0.1 0 0.4-0.3 0.4-0.3 0.4-0.4l0.4-0.3q0.5-0.2 0.6-0.2 0.2-0.1 0.6-0.3 0.5-0.3 0.3-0.2-0.2 0.1 0.4-0.2 0.4-0.1 0.6-0.2 0.1 0 0.7-0.2l0.3-0.1q0.2 0 0.7 0l0.4-0.1h0.6 0.5 0.5 0.6l0.5 0.1h0.5q0.2 0 0.6 0.2 0.6 0.1 0.4 0.1 1.1 0.3 2 0.9-0.1-0.1 0.4 0.1 0.5 0.3 0.6 0.4l0.3 0.3q0.4 0.3 0.5 0.4 0.1 0 0.4 0.2 0.2 0.3 0.4 0.4 0 0.1 0.3 0.4 0.4 0.3 0.4 0.4l0.3 0.4q0.3 0.4 0.3 0.5 0 0.1 0.3 0.4 0.3 0.4 0.3 0.5 0.3 0.5 0.4 0.9l34.1 82.2v0.1l11.7 28.2q1.7 4.1 0 8.3-1.7 4.2-5.9 5.9-2 0.9-4.1 0.9-7.4 0-10.1-6.8l-8.9-21.5h-53.6l-8.9 21.5q-2.7 6.8-10 6.8-2.2 0-4.2-0.9zm67.7-49.1l-17.8-42.9-17.8 42.9z"/>
		</g>
		<g id="Clip-Path: path6" clip-path="url(#cp3)">
			<path id="path6" class="s1" d="m295 349.6q-4.5 0-7.7-3.3-3.2-3.1-3.2-7.7v-110.3q0-4.6 3.2-7.7 3.2-3.2 7.7-3.2 4.5 0 7.7 3.2 3.2 3.1 3.2 7.7v110.3q0 4.6-3.2 7.7-3.2 3.3-7.7 3.3z"/>
		</g>
		<g id="Clip-Path: path8" clip-path="url(#cp4)">
			<path id="path8" class="s1" d="m419.1 310.1q-0.7 16.5-13.2 28-12.6 11.5-30 11.5-15.1 0-27-6.5-14.3-7.8-18.2-22.6-1.1-4.3 1.1-8.2 2.3-3.9 6.6-5 4.4-1.1 8.3 1.1 3.9 2.3 5 6.7 1.6 6.2 9 9.7 6.7 3 15.2 3 8.7 0 14.9-5.4 6.3-5.4 6.7-13.4 0.1-4.8-3.5-8.6-5.7-6.1-19.2-6.3h-0.1-0.2-0.2q-22.6-0.3-34.7-13-9.9-10.5-9.2-24.5 0.7-16.7 13.2-28.1 12.5-11.5 30-11.5 15.1 0 27 6.5 14.4 7.7 18.2 22.5 1.1 4.4-1.2 8.3-2.2 3.9-6.5 5-4.4 1.1-8.3-1.1-3.9-2.4-5-6.7-1.6-6.2-9.1-9.7-6.6-3.1-15.1-3.1-8.7 0-15 5.5-6.2 5.5-6.6 13.3-0.1 4.8 3.5 8.7 5.7 6 19.2 6.2h0.5q22.6 0.4 34.7 13.1 9.9 10.5 9.2 24.6z"/>
		</g>
		<g id="Clip-Path: path10" clip-path="url(#cp5)">
			<path id="path10" class="s1" d="m453.1 348.7q-4.5 0-7.7-3.2-3.2-3.1-3.2-7.6v-109.9q0-4.4 3.2-7.6 3.2-3.2 7.7-3.2 4.4 0 7.6 3.2 3.2 3.2 3.2 7.6v48.7l52.9-55.6q3.1-3.3 7.6-3.5 4.4-0.1 7.7 3.1 3.2 3 3.3 7.5 0.2 4.5-3 7.8l-44.4 46.7 46.2 48.5q3.1 3.4 3 7.8-0.1 4.5-3.4 7.6-3.1 3-7.5 3-4.6 0-7.8-3.4l-45.5-47.8-9.1 9.7v29.8q0 4.5-3.2 7.6-3.2 3.2-7.6 3.2z"/>
		</g>
		<g id="Clip-Path: path12" clip-path="url(#cp6)">
			<path id="path12" class="s1" d="m438.3 375.3c-4-4.4-10.7-4.7-15.1-0.7-24.1 21.8-57.5 37.7-95.7 43.8-1.2 0.2-2.4 0.6-3.4 1.2-2 1-3.3 2.3-4.1 3.4-0.7 1-1.2 1.9-1.5 2.6-0.6 1.4-0.8 2.4-1.1 3.4-0.3 1.5-0.4 2.9-0.5 4.3q-0.1 2.1-0.1 4.5c0 3.1 0.1 6.6 0.3 10.4 0.3 5.6 0.8 11.7 1.2 17.5 0.2 3.7 0.4 7.2 0.5 10.4-4.8-3.6-10.7-8.7-16.9-14.3-9.7-8.9-20.1-19.1-29.4-27.6-4.7-4.2-9.1-8-13.3-11.1-2-1.5-4.1-2.9-6.1-4-2.1-1.2-4.3-2.2-7-2.8-36.6-7.9-68.2-25-90.2-47.4-11.1-11.2-19.8-23.7-25.7-37.1-5.9-13.4-9.1-27.6-9.1-42.4 0-17.8 4.6-34.8 13-50.4 12.7-23.4 34.1-43.8 61.6-58.3 27.4-14.6 60.8-23.1 96.8-23.1 48 0 91.3 15.3 122.2 39.4 4.6 3.7 11.4 2.9 15-1.8 3.7-4.7 2.8-11.4-1.8-15-35.1-27.4-82.8-44.1-135.4-44.1-52.6 0-100.3 16.7-135.4 44.1-17.5 13.7-31.8 30.1-41.8 48.6-10 18.5-15.6 39-15.6 60.6 0 17.9 3.9 35.2 10.9 51.1 10.6 23.9 28.3 44.8 50.8 61.4 22.5 16.5 49.8 28.7 80 35.3h0.1c0.2 0.1 0.9 0.4 1.8 1 1.8 1.1 4.3 2.9 7.1 5.3 5 4.1 11.2 9.7 17.6 15.8 9.8 9.2 20.3 19.4 30 27.6 4.9 4.1 9.5 7.7 14 10.5 2.3 1.4 4.6 2.6 7 3.6 2.4 1 5 1.7 8.3 1.7 1.2 0 2.4-0.1 3.6-0.5 2.3-0.8 4-2.1 5.1-3.3 1-1.1 1.6-2.1 2.1-3 0.7-1.6 1.1-2.9 1.4-4.1 0.4-1.8 0.6-3.4 0.7-5.1q0.2-2.6 0.1-5.5c0-6.7-0.5-14.9-1-22.8-0.3-3.9-0.6-7.8-0.8-11.4-0.1-3.3-0.3-6.3-0.3-8.7 39-7.5 73.5-24.4 99.4-47.9 4.4-3.9 4.7-10.7 0.7-15.1z"/>
		</g>
	</g>
</svg>